<?xml version="1.0" encoding="UTF-8"?>
<svg width="663px" height="254px" viewBox="0 0 663 254" version="1.1" xmlns="http://www.w3.org/2000/svg" xmlns:xlink="http://www.w3.org/1999/xlink">
    <!-- Generator: Sketch 50.2 (55047) - http://www.bohemiancoding.com/sketch -->
    <title>bity_logo_white</title>
    <desc>Created with Sketch.</desc>
    <defs></defs>
    <g id="Logo" stroke="none" stroke-width="1" fill="none" fill-rule="evenodd">
        <g id="Artboard" transform="translate(-166.000000, -148.000000)" fill="#FFFFFF" fill-rule="nonzero">
            <g id="bity_logo_white" transform="translate(165.000000, 146.000000)">
                <path d="M10.0593255,82.7850417 C5.3982025,82.7850417 1.61807847,79.0049174 1.61807847,74.3437944 C1.61807847,69.683078 5.3982025,65.9029542 10.0593255,65.9029542 L69.3127089,65.9395437 C97.7628378,65.9395437 114.469295,83.1009329 114.469295,107.935998 C114.469295,132.690973 95.6304708,141.293621 95.5056591,141.352164 C95.5020002,141.352164 95.5020002,141.352164 95.5020002,141.352164 C95.6564902,141.407049 123.501263,151.360265 123.501263,178.379329 C123.501263,205.475639 98.2145174,219.924917 78.7959495,219.924917 L10.0593255,219.987119 C5.29534476,219.987119 1.43472335,216.126092 1.43472335,211.362518 C1.43472335,206.598537 5.29534476,202.737915 10.0593255,202.737915 L75.6362248,202.767187 C90.9880489,202.767187 105.436921,195.089445 105.436921,178.379329 C105.436921,158.061874 87.3766441,150.384132 73.8266602,150.384132 L17.6488454,150.435764 C12.9881289,150.435764 9.2075983,146.655234 9.2075983,141.994518 C9.2075983,137.333395 12.9881289,133.55327 17.6488454,133.55327 L71.569481,133.674423 C84.2128534,133.674423 98.2145174,124.646114 98.2145174,108.163668 C98.2145174,91.6812209 86.4736915,82.6492533 72.4724341,82.6492533 L10.0593255,82.7850417 Z" id="Fill-5"></path>
                <path d="M7.55943495,219.208165 C3.78662887,218.297894 1.32414111,214.635264 1.32414111,210.755941 L1.32414111,75.3776572 C1.32414111,71.5024 3.78662887,67.8357041 7.55943495,66.9254332 C13.03163,65.6082037 17.9200159,69.7221071 17.9200159,74.9776098 L17.9200159,211.159648 C17.9200159,216.411491 13.03163,220.529054 7.55943495,219.208165" id="Fill-7"></path>
                <path d="M200.465287,220.040378 C195.885068,220.040378 192.167146,216.278549 192.167146,211.643039 L192.167146,73.85024 C192.167146,69.2151364 195.885068,65.456966 200.465287,65.456966 C205.045506,65.456966 208.763428,69.2151364 208.763428,73.85024 L208.763428,211.643039 C208.763428,216.278549 205.045506,220.040378 200.465287,220.040378" id="Fill-8"></path>
                <path d="M397.901759,81.9471371 L282.576672,81.9471371 C278.716051,81.9471371 275.071715,79.4919672 274.165103,75.7411151 C272.851125,70.2949395 276.947141,65.4317598 282.176624,65.4317598 L397.501712,65.4317598 C401.362333,65.4317598 405.006669,67.8836774 405.913281,71.6381884 C407.223599,77.084364 403.127584,81.9471371 397.901759,81.9471371" id="Fill-9"></path>
                <path d="M339.646462,217.277448 L339.620849,217.277448 C335.062584,217.262812 331.374341,213.555868 331.388977,208.994349 L331.773982,75.9541485 C331.789024,71.4032011 335.484585,67.7218696 340.031874,67.7218696 L340.057487,67.7218696 C344.615752,67.7369118 348.303995,71.44345 348.289359,76.0053741 L347.903948,209.045575 C347.889312,213.596522 344.193751,217.277448 339.646462,217.277448" id="Fill-10"></path>
                <path d="M444.741472,47.2934253 C443.049808,44.1479296 443.603939,40.1437952 446.334345,37.5894266 C454.42677,30.0145427 463.521346,23.4893769 473.364386,18.1859011 C523.343497,-8.73030585 584.138526,-0.145952305 624.652282,39.5494156 C628.190103,43.0213729 627.856326,48.9448412 623.591587,51.9468239 C620.332667,54.2405926 615.86262,53.4848117 613.00334,50.7064326 C577.56173,16.2848621 524.587547,8.9116282 481.009197,32.3782381 C472.516724,36.9511393 464.666604,42.5623753 457.667805,49.0623348 C454.988625,51.5504353 450.969855,52.3615073 447.831677,50.4860812 C446.437203,49.6530554 445.413097,48.5374756 444.741472,47.2934253" id="Fill-11"></path>
                <path d="M421.014262,192.743638 C405.706345,164.322781 401.621714,131.464404 409.501105,100.191988 C410.418694,96.5586296 413.684936,93.7619562 417.432129,93.8428601 C422.875052,93.956288 426.445802,98.97721 425.190775,103.898527 C418.221247,131.324957 421.777767,160.164563 435.206193,185.099233 C449.449756,211.541807 473.096062,230.864835 501.829151,239.552046 C505.458851,240.649331 508.259183,243.897278 508.079487,247.688379 C507.815228,253.17521 502.618269,256.606919 497.711588,255.149835 C464.621884,245.299071 437.382874,223.139527 421.014262,192.743638" id="Fill-12"></path>
                <path d="M565.064716,250.263889 C564.536196,249.28369 564.198353,248.164452 564.099562,246.920402 C563.809284,243.143937 566.499439,239.826063 570.092546,238.62592 C576.203435,236.585434 582.200085,233.983499 587.92556,230.900612 C632.340599,206.982729 655.553922,156.075052 644.507084,106.95824 C643.6334,103.075665 645.30718,98.8767913 648.955174,97.283919 C653.744768,95.1958664 658.996608,97.9961992 660.104874,102.844336 C673.045432,159.165257 646.507321,217.662453 595.570372,245.092542 C588.868762,248.703947 581.840695,251.72829 574.680087,254.08792 C570.914595,255.328311 566.881192,253.640306 565.064716,250.263889" id="Fill-13"></path>
                <path d="M535.246535,221.53893 L535.239219,221.53893 C530.97855,221.531612 527.532205,218.07795 527.539524,213.820533 L527.631404,176.499838 C527.638722,172.242421 531.08466,168.803394 535.33476,168.803394 L535.345736,168.803394 C539.603155,168.810713 543.04909,172.264375 543.041775,176.518132 L542.953955,213.842894 C542.946639,218.099903 539.496638,221.53893 535.246535,221.53893" id="Fill-14"></path>
                <path d="M579.859155,74.0551424 C579.859155,74.0551424 579.994946,80.0444721 579.994946,103.764364 C579.994946,138.109096 559.952727,142.755177 535.429079,142.942191 C510.909498,142.755177 490.86362,138.109096 490.86362,103.764364 C490.86362,82.7972382 490.999409,74.0551424 490.999409,74.0551424 C490.999409,62.7033867 474.120574,63.844986 474.120574,74.0551424 L474.120574,111.288023 C474.120574,132.159609 485.094236,156.653983 532.84178,158.048458 L532.84178,158.125296 C533.726031,158.125296 534.566782,158.107001 535.429079,158.092366 C536.291783,158.107001 537.135788,158.125296 538.020038,158.125296 L538.020038,158.048458 C585.76433,156.653983 596.741246,132.159609 596.741246,111.288023 L596.741246,74.0551424 C596.741246,63.844986 579.859155,62.7033867 579.859155,74.0551424" id="Fill-15"></path>
            </g>
        </g>
    </g>
</svg>