<?xml version="1.0" encoding="UTF-8"?>
<svg width="259px" height="254px" viewBox="0 0 259 254" version="1.1" xmlns="http://www.w3.org/2000/svg" xmlns:xlink="http://www.w3.org/1999/xlink">
    <!-- Generator: Sketch 50.2 (55047) - http://www.bohemiancoding.com/sketch -->
    <title>bity_logomark_white</title>
    <desc>Created with Sketch.</desc>
    <defs></defs>
    <g id="Logo" stroke="none" stroke-width="1" fill="none" fill-rule="evenodd">
        <g id="Artboard-Copy-5" transform="translate(-145.000000, -147.000000)" fill="#FFFFFF" fill-rule="nonzero">
            <g id="bity_logomark_white" transform="translate(145.000000, 147.000000)">
                <path d="M39.7414724,45.2934253 C38.0498078,42.1479296 38.6039386,38.1437952 41.3343447,35.5894266 C49.4267697,28.0145427 58.5213462,21.4893769 68.3643863,16.1859011 C118.343497,-10.7303059 179.138526,-2.14595231 219.652282,37.5494156 C223.190103,41.0213729 222.856326,46.9448412 218.591587,49.9468239 C215.332667,52.2405926 210.86262,51.4848117 208.00334,48.7064326 C172.56173,14.2848621 119.587547,6.9116282 76.0091972,30.3782381 C67.5167243,34.9511393 59.6666044,40.5623753 52.6678054,47.0623348 C49.9886249,49.5504353 45.9698549,50.3615073 42.831677,48.4860812 C41.4372025,47.6530554 40.4130966,46.5374756 39.7414724,45.2934253" id="Fill-11"></path>
                <path d="M16.0142622,190.743638 C0.706345397,162.322781 -3.3782863,129.464404 4.5011053,98.1919883 C5.41869399,94.5586296 8.6849359,91.7619562 12.4321291,91.8428601 C17.8750524,91.956288 21.4458022,96.97721 20.190775,101.898527 C13.2212472,129.324957 16.7777675,158.164563 30.206193,183.099233 C44.4497555,209.541807 68.0960618,228.864835 96.8291513,237.552046 C100.458851,238.649331 103.259183,241.897278 103.079487,245.688379 C102.815228,251.17521 97.6182694,254.606919 92.7115885,253.149835 C59.6218839,243.299071 32.3828744,221.139527 16.0142622,190.743638" id="Fill-12"></path>
                <path d="M160.064716,248.263889 C159.536196,247.28369 159.198353,246.164452 159.099562,244.920402 C158.809284,241.143937 161.499439,237.826063 165.092546,236.62592 C171.203435,234.585434 177.200085,231.983499 182.92556,228.900612 C227.340599,204.982729 250.553922,154.075052 239.507084,104.95824 C238.6334,101.075665 240.30718,96.8767913 243.955174,95.283919 C248.744768,93.1958664 253.996608,95.9961992 255.104874,100.844336 C268.045432,157.165257 241.507321,215.662453 190.570372,243.092542 C183.868762,246.703947 176.840695,249.72829 169.680087,252.08792 C165.914595,253.328311 161.881192,251.640306 160.064716,248.263889" id="Fill-13"></path>
                <path d="M130.246535,219.53893 L130.239219,219.53893 C125.97855,219.531612 122.532205,216.07795 122.539524,211.820533 L122.631404,174.499838 C122.638722,170.242421 126.08466,166.803394 130.33476,166.803394 L130.345736,166.803394 C134.603155,166.810713 138.04909,170.264375 138.041775,174.518132 L137.953955,211.842894 C137.946639,216.099903 134.496638,219.53893 130.246535,219.53893" id="Fill-14"></path>
                <path d="M174.859155,72.0551424 C174.859155,72.0551424 174.994946,78.0444721 174.994946,101.764364 C174.994946,136.109096 154.952727,140.755177 130.429079,140.942191 C105.909498,140.755177 85.8636201,136.109096 85.8636201,101.764364 C85.8636201,80.7972382 85.999409,72.0551424 85.999409,72.0551424 C85.999409,60.7033867 69.1205738,61.844986 69.1205738,72.0551424 L69.1205738,109.288023 C69.1205738,130.159609 80.0942355,154.653983 127.84178,156.048458 L127.84178,156.125296 C128.726031,156.125296 129.566782,156.107001 130.429079,156.092366 C131.291783,156.107001 132.135788,156.125296 133.020038,156.125296 L133.020038,156.048458 C180.76433,154.653983 191.741246,130.159609 191.741246,109.288023 L191.741246,72.0551424 C191.741246,61.844986 174.859155,60.7033867 174.859155,72.0551424" id="Fill-15"></path>
            </g>
        </g>
    </g>
</svg>