<?xml version="1.0" encoding="UTF-8" standalone="no"?>
<svg
   xmlns:dc="http://purl.org/dc/elements/1.1/"
   xmlns:cc="http://creativecommons.org/ns#"
   xmlns:rdf="http://www.w3.org/1999/02/22-rdf-syntax-ns#"
   xmlns:svg="http://www.w3.org/2000/svg"
   xmlns="http://www.w3.org/2000/svg"
   id="svg1325"
   version="1.1"
   viewBox="0 0 130.93651 38.035618"
   height="38.035618mm"
   width="130.93651mm">
  <defs
     id="defs1319" />
  <metadata
     id="metadata1322">
    <rdf:RDF>
      <cc:Work
         rdf:about="">
        <dc:format>image/svg+xml</dc:format>
        <dc:type
           rdf:resource="http://purl.org/dc/dcmitype/StillImage" />
        <dc:title></dc:title>
      </cc:Work>
    </rdf:RDF>
  </metadata>
  <g
     transform="translate(0.45635256,-22.470288)"
     id="layer1">
    <g
       transform="matrix(0.03886306,0,0,-0.03886306,-221.94696,665.31686)"
       id="g68">
      <path
         id="path70"
         style="fill:#000000;fill-opacity:1;fill-rule:nonzero;stroke:none"
         d="m 7330.07,15893.6 c 0,64 -47.36,82.3 -125.49,82.3 h -113.15 v -164.6 h 113.15 c 78.13,0 125.49,18.3 125.49,82.3 z m -238.71,316.6 v -144.6 h 96.59 c 69.81,0 115.53,15 115.53,79 0,56.5 -53.2,65.6 -115.53,65.6 z m 344.27,-316.6 c 0,-140.5 -93.92,-175.4 -231.05,-175.4 h -184.1 c -20.88,0 -37.82,17 -37.82,37.8 v 506.2 c 0,20.9 16.94,37.8 37.82,37.8 h 167.47 c 129.65,0 212.77,-48.2 212.77,-155.4 0,-57.4 -24.11,-94.8 -66.49,-117.2 62.33,-12.5 101.4,-46.5 101.4,-133.8" />
    </g>
    <g
       transform="matrix(0.03887787,0,0,-0.03887787,-221.94696,665.31686)"
       id="g72">
      <path
         id="path74"
         style="fill:#000000;fill-opacity:1;fill-rule:nonzero;stroke:none"
         d="m 7705.23,15705.7 c -30.06,0 -54.45,24.4 -54.45,54.5 v 485.4 c 0,30 24.39,54.4 54.45,54.4 30.07,0 54.44,-24.4 54.44,-54.4 v -485.4 c 0,-30.1 -24.37,-54.5 -54.44,-54.5" />
    </g>
    <g
       transform="matrix(0.038862,0,0,-0.038862,-221.94696,665.31686)"
       id="g76">
      <path
         id="path78"
         style="fill:#000000;fill-opacity:1;fill-rule:nonzero;stroke:none"
         d="m 8401.38,16300 h -398.29 c -29.58,0 -53.55,-24 -53.55,-53.6 0,-29.5 23.97,-53.5 53.55,-53.5 h 144.69 v -426.4 c 0,-30 24.38,-54.4 54.46,-54.4 30.08,0 54.47,24.4 54.47,54.4 v 426.4 h 144.67 c 29.58,0 53.57,24 53.57,53.5 0,29.6 -23.99,53.6 -53.57,53.6" />
    </g>
    <g
       transform="matrix(0.03887787,0,0,-0.03887787,-221.94696,665.31686)"
       id="g80">
      <path
         id="path82"
         style="fill:#000000;fill-opacity:1;fill-rule:nonzero;stroke:none"
         d="m 9010.53,16300 c -30.07,0 -54.44,-24.4 -54.44,-54.4 v -103.7 c 0,-58.5 -36.31,-117.5 -117.41,-117.5 -58.44,0 -117.42,36.3 -117.42,117.5 v 103.7 c 0,30 -24.37,54.4 -54.44,54.4 -30.06,0 -54.45,-24.4 -54.45,-54.4 v -103.7 c 0,-112.1 69.59,-197.9 171.72,-220.5 v -161.2 c 0,-30.1 24.37,-54.5 54.45,-54.5 30.06,0 54.44,24.4 54.44,54.5 v 161.2 c 102.27,22.4 172,108.2 172,220.5 v 103.7 c 0,30 -24.38,54.4 -54.45,54.4" />
    </g>
    <g
       transform="matrix(0.03869902,0,0,-0.03869902,-221.94696,665.31686)"
       id="g84">
      <path
         id="path86"
         style="fill:#0061ff;fill-opacity:1;fill-rule:nonzero;stroke:none"
         d="m 6620.93,16282 c -21.97,-12.6 -31.93,-38.7 -25.01,-63.1 9.53,-33.6 14.66,-69 14.66,-105.6 0,-181.4 -124.94,-334.2 -293.29,-376.9 -24.42,-6.2 -41.69,-27.8 -41.69,-53 v -0.1 c 0,-35.6 33.59,-61.8 68.17,-53 215.92,54.5 376.2,250.4 376.2,483 0,47 -6.61,92.5 -18.87,135.7 -9.82,34.5 -49.07,51 -80.17,33 v 0" />
    </g>
    <g
       transform="matrix(0.03943844,0,0,-0.03943844,-221.94696,665.31686)"
       id="g88">
      <path
         id="path90"
         style="fill:#0061ff;fill-opacity:1;fill-rule:nonzero;stroke:none"
         d="m 5767.13,16068.6 c 21.49,-12.4 48.37,-8.1 65.76,9.6 69.27,70.6 165.64,114.5 272.12,114.5 106.23,0 202.39,-43.7 271.62,-114 17.39,-17.7 44.24,-21.9 65.69,-9.5 h 0.01 c 30.52,17.6 35.92,59.2 11.22,84.3 -88.75,90.4 -212.2,146.5 -348.54,146.5 -136.65,0 -260.35,-56.4 -349.15,-147.1 -24.63,-25.1 -19.21,-66.7 11.27,-84.3 v 0" />
    </g>
    <g
       transform="matrix(0.0386969,0,0,-0.0386969,-221.94696,665.31686)"
       id="g92">
      <path
         id="path94"
         style="fill:#0061ff;fill-opacity:1;fill-rule:nonzero;stroke:none"
         d="m 6166.51,15684.5 c 0,25.1 -17.18,46.8 -41.49,53 -167.65,43.2 -291.89,195.6 -291.89,376.6 0,36.3 5.06,71.5 14.46,104.9 6.86,24.4 -3.09,50.4 -25.05,63 v 0 c -31.12,18 -70.43,1.5 -80.19,-33.1 -12.11,-42.9 -18.62,-88.1 -18.62,-134.8 0,-232 159.42,-427.4 374.45,-482.6 34.61,-8.9 68.33,17.3 68.33,53 v 0" />
    </g>
  </g>
</svg>
